<svg width="25" height="24" viewBox="0 0 25 24" fill="none" xmlns="http://www.w3.org/2000/svg">
<path d="M15.5002 2.3999V5.9999C15.5002 6.66264 16.0375 7.1999 16.7002 7.1999H20.3002M8.9002 7.1999H11.3002M8.9002 10.7999H16.1002M8.9002 14.3999H16.1002M18.5002 4.1999C17.9661 3.72204 17.4119 3.15528 17.0621 2.78718C16.8292 2.54224 16.5076 2.3999 16.1696 2.3999H7.09992C5.77444 2.3999 4.69993 3.47441 4.69992 4.79989L4.69983 19.1998C4.69982 20.5253 5.77433 21.5998 7.09982 21.5998L17.8999 21.5999C19.2253 21.5999 20.2998 20.5254 20.2999 19.2L20.3002 6.47773C20.3002 6.1709 20.1831 5.87594 19.9702 5.65503C19.5764 5.24655 18.9188 4.57442 18.5002 4.1999Z" stroke="white" stroke-width="2" stroke-linecap="round" stroke-linejoin="round"/>
</svg>
